<svg width="36" height="36" viewBox="0 0 36 36" fill="none" xmlns="http://www.w3.org/2000/svg">
<path d="M14 28C13.45 28 12.9792 27.8042 12.5875 27.4125C12.1958 27.0208 12 26.55 12 26C12 25.45 12.1958 24.9792 12.5875 24.5875C12.9792 24.1958 13.45 24 14 24C14.55 24 15.0208 24.1958 15.4125 24.5875C15.8042 24.9792 16 25.45 16 26C16 26.55 15.8042 27.0208 15.4125 27.4125C15.0208 27.8042 14.55 28 14 28V28M24 28C23.45 28 22.9792 27.8042 22.5875 27.4125C22.1958 27.0208 22 26.55 22 26C22 25.45 22.1958 24.9792 22.5875 24.5875C22.9792 24.1958 23.45 24 24 24C24.55 24 25.0208 24.1958 25.4125 24.5875C25.8042 24.9792 26 25.45 26 26C26 26.55 25.8042 27.0208 25.4125 27.4125C25.0208 27.8042 24.55 28 24 28V28M13.15 12L15.55 17H22.55V17V17L25.3 12V12V12H13.15V12M12.2 10H26.95C27.3333 10 27.625 10.1708 27.825 10.5125C28.025 10.8542 28.0333 11.2 27.85 11.55L24.3 17.95C24.1167 18.2833 23.8708 18.5417 23.5625 18.725C23.2542 18.9083 22.9167 19 22.55 19H15.1L14 21V21V21H26V23H14C13.25 23 12.6833 22.6708 12.3 22.0125C11.9167 21.3542 11.9 20.7 12.25 20.05L13.6 17.6L10 10H8V8H11.25L12.2 10V10M15.55 17V17H22.55V17V17V17H15.55V17" fill="white"/>
</svg>
