<svg xmlns="http://www.w3.org/2000/svg" xml:space="preserve" width="589.5304mm" height="201.98723mm" viewBox="0 0 589.5304 201.98723"><path d="M150.865 236.75C47.805 235.41-37.105 214.721-69.9 182.955c-8.005-7.753-12.513-15.251-14.377-23.916-.655-3.045-.648-10.292.013-13.404 3.207-15.091 15.27-29.573 36.296-43.574C-7.359 75.02 63.228 53.119 144.515 42.34c55.428-7.35 113.697-9.392 166.688-5.841 90.65 6.073 160.1 27.965 184.235 58.072 4.441 5.54 7.493 11.682 8.81 17.727.69 3.17.69 10.586 0 13.759-3.292 15.142-15.367 29.576-36.412 43.526-12.786 8.475-27.984 16.253-45.974 23.528-58.064 23.48-136.949 38.765-220.593 42.741-13.437.64-37.42 1.066-50.404.897zm41.805-11.46c10.14-.525 18.636-1.093 26.193-1.75 51.984-4.521 100.614-15.273 146.447-32.38 6.356-2.373 9.466-3.72 15.61-6.76 9.572-4.738 13.627-6.986 13.627-7.558 0-.236-.281-.557-.625-.714-1.807-.823-5.9-4.83-13.126-12.853-4.283-4.754-7.916-8.643-8.076-8.643-.159 0-3.37 3.935-7.135 8.744-3.766 4.81-7.542 9.388-8.392 10.175-1.9 1.759-5.208 3.434-7.89 3.996-2.688.563-11.13.394-14.023-.281-5.571-1.3-8.45-4.07-11.654-11.215l-1.443-3.216h-16.558l-16.56-.001-2.754 3.902c-4.602 6.519-7.897 9.317-12.414 10.542-2.063.56-9.232.62-11.453.095-3.357-.79-6.205-3.017-7.59-5.932-1.492-3.14-1.595-4.359-1.595-18.915 0-10.423-.07-13.237-.33-13.226-.182.008-1.79 2.061-3.571 4.564-4.258 5.98-7.52 9.857-9.328 11.09-1.879 1.279-4.312 1.91-6.615 1.712-3.064-.262-5.206-1.54-7.607-4.538-3.942-4.923-14.174-16.81-14.469-16.81-.545 0-.675 3.987-.676 20.788-.002 17.109.007 17.012-1.569 18.922-.417.506-1.396 1.274-2.175 1.705-1.25.692-1.668.784-3.534.771-2.526-.016-3.697-.525-5.356-2.324-2.123-2.304-2.022-.434-1.81-33.38.202-31.278.199-31.214 1.588-33.957 1.87-3.689 4.854-5.33 9.68-5.325 4.259.005 7.165 1.557 11.522 6.158 1.448 1.528 6.562 7.783 11.364 13.899 4.802 6.116 8.872 11.128 9.044 11.137.172.01 4.219-5.668 8.993-12.616 9.361-13.626 11.25-15.947 14.11-17.343 5.227-2.551 10.851-.674 13.445 4.488 1.59 3.166 1.636 3.754 1.636 21.241 0 12.536.07 15.889.33 15.887.182 0 5.272-8.359 11.312-18.572 12.265-20.744 12.551-21.151 16.091-22.9 2.007-.991 2.007-.991 6.12-.983 3.676.007 4.28.073 5.66.623 1.85.737 3.93 2.372 5.087 4.002.464.653 5.823 11.933 11.91 25.066 7.78 16.79 11.186 23.876 11.474 23.87.471-.01 13.375-16.429 13.375-17.018 0-.214-5.596-6.59-12.435-14.168-13.452-14.906-14.323-16.033-14.078-18.236.176-1.586 1.324-2.938 3.122-3.676 1.373-.564 1.77-.588 9.818-.595 9.235-.01 10.195.099 13.102 1.478 3.664 1.739 7.958 5.58 14.097 12.608 1.092 1.25 2.115 2.28 2.275 2.29.425.028 34.303-43.35 34.156-43.734-.16-.417-5.05-3.069-9.972-5.408-43.127-20.496-113.968-29.76-187.458-24.51-20.398 1.456-51.584 5.49-70.308 9.095-13.048 2.512-36.457 8.195-50.739 12.318-16.096 4.647-25.185 7.885-38.093 13.567-6.68 2.94-20.464 9.89-25.539 12.877-28.781 16.937-45.354 35.938-47.517 54.482-1.211 10.378 1.968 20.637 9.19 29.65 2.804 3.501 8.976 9.472 9.677 9.363.37-.057 7.079-11.075 24.133-39.635 18.472-30.932 23.953-39.915 25.145-41.209 1.758-1.907 4.337-3.33 6.889-3.802 3.027-.559 9.732.153 12.948 1.375 1.826.694 3.928 2.192 4.76 3.393.642.926 4.945 10.23 12.706 27.477 1.788 3.972 3.275 6.946 3.473 6.946.282 0 .366-2.797.445-14.751.087-13.153.148-14.92.566-16.324 1.463-4.92 4.238-7.515 8.628-8.067 2.514-.315 8.01.068 9.523.664 1.87.737 3.698 2.026 5.461 3.853 1.823 1.889 4.335 4.954 19.655 23.984 5.883 7.307 10.854 13.286 11.046 13.286.287 0 .35-3.198.35-17.679 0-20.4-.078-19.622 2.212-21.916 1.838-1.841 3.406-2.306 7.28-2.157 2.397.092 3.011.211 4.166.809 1.512.782 2.59 1.923 3.31 3.505.458 1.004.483 2.557.48 30.162-.003 23.21-.076 29.509-.36 31.1-.694 3.893-2.912 6.884-6.263 8.446-2.174 1.014-5.493 1.38-9.424 1.039-5.732-.497-8.206-2.163-14.097-9.496-5.888-7.328-24.494-29.369-24.792-29.369-.257 0-.345 2.98-.404 13.566-.075 13.566-.075 13.566-.977 15.412-1.614 3.305-5.295 6.431-9.601 8.154-3.205 1.282-4.996 1.56-9.209 1.433-4.392-.133-6.687-.737-9.814-2.584-3.005-1.774-4.56-3.59-6.454-7.53-.91-1.896-1.739-3.717-1.84-4.045-.185-.598-.185-.598-15.163-.53l-14.978.069-10.92 17.992c-6.005 9.895-10.925 18.119-10.932 18.274-.012.261 8.22 3.895 12.554 5.542 32.84 12.479 71.218 19.427 117.608 21.294 7.093.285 39.348.112 46.302-.248zm-17.521-47.912c-4.076-.687-7.5-4.015-8.376-8.141-.327-1.542-.366-29.142-.068-48.34.168-10.848.168-10.848.881-12.37 1.493-3.184 4.562-5.503 8.05-6.081 4.853-.805 10.026 1.98 11.79 6.348.613 1.52.613 1.52.687 29.698.05 18.814-.02 28.782-.206 29.996-.722 4.7-4.1 8.128-8.754 8.883-1.892.307-2.218.308-4.004.007zm242.087-16.05c13.472-11.644 21.125-22.82 23.663-34.56.781-3.613.858-11.343.145-14.644-1.781-8.248-6.034-15.669-12.842-22.407-1.428-1.415-2.534-2.305-2.793-2.25-.673.146-36.713 46.3-36.625 46.905.106.728 25.37 28.693 25.938 28.711.256.008 1.387-.782 2.514-1.756zm-99.948-9.352c0-.15-2.104-4.854-4.677-10.45-3.29-7.16-4.8-10.175-5.093-10.169-.403.01-12.72 19.959-12.72 20.602 0 .208 3.228.291 11.246.291 7.587 0 11.244-.089 11.244-.274zm-254.793-.73c0-.803-7.276-16.319-7.688-16.394-.393-.072-9.826 15.125-9.99 16.097-.094.552.706.6 12.055.715 5.257.054 5.623.026 5.623-.418z" style="fill:#00b8ff;fill-opacity:1" transform="translate(84.765 -34.8)"/></svg>