<svg xmlns="http://www.w3.org/2000/svg" width="1000" height="317.522" viewBox="0 0 264.58333 84.011032"><path d="M170.448 28.642c-6.008-5.89-13.354-8.876-21.832-8.876-8.482 0-15.718 2.988-21.7 8.876-1.292 1.266-2.562 2.596-3.356 3.982v-.983c0-3.42-1.247-6.49-3.681-8.864-2.426-2.395-5.42-3.66-8.848-3.66-2.667 0-5.462.776-7.314 2.245V10.427c0-.088-.051-.176-.057-.264-.11-1.807-.775-3.568-1.92-5.219-1.549-2.253-4.611-4.94-10.353-4.94-5.62 0-8.756 2.532-10.393 4.656-1.218 1.58-1.631 2.735-1.884 4.464-.03.207 0 .94 0 1.148v5.419L72.73 5.489c-.57-1.168-1.605-2.219-2.895-3.132C67.665.793 64.84 0 61.529 0c-.17 0-.366.002-.526.006C52.62.178 47.67 5.242 47.444 13.9c0 .027-.007.054-.008.08l-.162 21.736c-1.012-2.596-2.107-5.41-3.294-8.464-.49-1.54-1.428-3.027-2.793-4.423-2.627-2.684-6.14-4.13-10.449-4.298-4.534-.169-8.3 1.171-11.272 3.995-1.628 1.573-3.067 3.767-4.4 6.709a5.129 5.129 0 0 0-.069.162L.493 65.24a4.31 4.31 0 0 0-.272 1.012l-.155 1.082a4.265 4.265 0 0 0-.033.32 13.34 13.34 0 0 0 .275 3.816c.905 4.134 3.791 7.16 8.107 8.517 4.301 1.376 8.024 1.088 11.02-.843 2.094-1.373 3.574-3.372 4.398-5.944l5.965-17.485 6.288 18.887c.126.378.303.736.526 1.065l.588.865c.068.102.142.2.22.296.844 1.04 1.86 1.993 3.022 2.703 1.92 1.173 4.08 1.834 6.42 1.834 1.867 0 3.864-.455 5.961-1.23 4.904-1.849 6.59-5.074 7.147-7.454.526-2.313.238-4.713-.838-6.9-.116-.244-.438-1.01-1.203-2.913.374.026.76.04 1.16.04 4.1 0 7.676-1.039 10.08-3.098 2.333-2.022 3.856-4.79 3.856-8.006v-3.286l4.052 7.35c.036.057-.038-.056 0 0 .723 1.068 1.523 2.046 2.522 2.907 2.98 2.64 6.602 3.979 10.836 3.979.125 0 .312-.001.436-.004 3.132-.057 5.437-.823 7.289-1.867v8.763c0 3.41 1.345 6.485 3.805 8.915 2.444 2.382 5.57 3.641 8.988 3.641 3.427 0 6.485-1.265 8.912-3.661 2.441-2.41 3.695-5.485 3.695-8.894v-1.922c.794 1.386 2.06 2.719 3.35 3.987 5.988 5.894 13.274 8.882 21.756 8.882 8.479 0 15.799-2.986 21.814-8.882 6.008-5.912 9.042-13.162 9.042-21.548 0-8.388-3.061-15.63-9.074-21.523z"/><path fill="#ff2400" d="M148.88 24.807c7.154 0 13.267 2.484 18.339 7.453 5.05 4.947 7.576 10.936 7.576 17.967 0 7.03-2.526 13.03-7.576 17.998-5.072 4.968-11.185 7.453-18.339 7.453-7.154 0-13.267-2.485-18.339-7.453-5.05-4.969-7.576-10.969-7.576-17.998 0-7.03 2.526-13.02 7.576-17.967 5.073-4.969 11.185-7.453 18.34-7.453"/><path fill="#fff" d="M119.33 31.205V69.21c0 2.268-.814 4.195-2.443 5.783-1.629 1.608-3.598 2.411-5.906 2.411-2.31 0-4.289-.803-5.938-2.41-1.628-1.59-2.443-3.516-2.443-5.784V31.205c0-2.268.815-4.206 2.443-5.814 1.65-1.608 3.629-2.412 5.938-2.412 2.308 0 4.277.804 5.906 2.412 1.629 1.608 2.443 3.546 2.443 5.814M68.706 7.053l14.35 23.657V9.805c.144-.99.597-1.98 1.36-2.969 1.526-1.98 3.845-2.969 6.958-2.969 3.114 0 5.37 1.02 6.773 3.062.7 1.01 1.082 2.02 1.144 3.03v39.986c0 1.834-.443 3.412-1.33 4.73-1.443 2.145-3.865 3.248-7.267 3.31-3.299.062-6.071-.918-8.318-2.937a10.34 10.34 0 0 1-1.856-2.073L68.12 32.658v18.679c0 1.958-.69 3.534-2.072 4.73-1.587 1.362-3.907 2.042-6.958 2.042-3.175 0-5.391-1.124-6.649-3.37a8.18 8.18 0 0 1-.835-2.351l-.123-1.051.278-37.79c.165-6.31 3.268-9.535 9.309-9.68 2.597-.061 4.648.454 6.154 1.547.761.535 1.257 1.082 1.483 1.639M38.09 25.422c.929.948 1.527 1.886 1.795 2.814 9.689 24.905 14.813 37.903 15.369 38.996.66 1.299.824 2.629.495 3.989-.454 1.959-1.938 3.401-4.453 4.33-3.402 1.257-6.268 1.174-8.597-.247a6.987 6.987 0 0 1-1.917-1.64l-.588-.865-7.917-23.812c-1.051-1.567-2.186-2.031-3.401-1.392-.762.408-1.094.867-1.516 1.392l-7.638 22.42c-.516 1.628-1.402 2.845-2.66 3.65-1.856 1.195-4.299 1.307-7.329.339-2.886-.908-4.618-2.68-5.196-5.32a8.736 8.736 0 0 1-.185-2.566l.155-1.083 14.504-35.84c1.072-2.413 2.226-4.207 3.463-5.382 2.083-1.979 4.783-2.906 8.103-2.783 3.174.124 5.679 1.124 7.514 3"/><path d="M256.935 61.346a11.102 11.102 0 0 0 2.039-1.955 10.837 10.837 0 0 0 2.454-6.907c0-2.986-1.13-5.68-3.247-7.763a11.187 11.187 0 0 0-1.538-1.288 11.65 11.65 0 0 0 4.515-2.74c2.24-2.208 3.425-5.017 3.425-8.124 0-3.12-1.192-5.72-3.47-7.932-2.236-2.142-5.069-3.068-8.189-3.068h-26.811c-3.02 0-5.45.489-7.303 2.074V11.076c0-.088-.047-.176-.052-.264-.11-1.807-.775-3.567-1.919-5.218-1.548-2.254-4.61-4.94-10.352-4.94-5.645 0-8.787 2.532-10.431 4.665-.7.974-1.561 2.376-1.852 3.675v7.403l-6.455-10.264c-.575-1.173-1.623-2.228-2.904-3.129-2.19-1.56-5.061-2.352-8.431-2.352L176 .656c-8.396.2-13.352 5.275-13.578 13.946-.083 3.873-.183 16.6-.286 37.83 0 .176.006.353.027.528l.122 1.05c.013.11.029.217.05.323a12.521 12.521 0 0 0 1.28 3.588c.012.026.026.05.04.075 1.442 2.536 4.425 5.56 10.443 5.56 4.1 0 7.572-1.038 9.923-3.053 2.388-2.002 3.833-4.786 3.833-8.05V49.18l4.255 7.404c.05.08-.053-.076 0 0 .729 1.036 1.535 1.987 2.472 2.815 3.007 2.678 6.663 4.037 10.913 4.037.124 0 .433-.001.555-.004 3.507-.063 6.147-1.011 8-2.246v10.133c0 4.532 1.745 7.51 3.501 9.034 1.562 1.604 4.083 3.659 8.563 3.659h26.811c3.12 0 5.952-1.386 8.189-3.528.016-.015.031-.157.046-.172 2.24-2.209 3.424-5.08 3.424-8.188 0-2.935-1.076-5.646-3.09-7.756-1.289-1.375-2.835-2.415-4.558-3.021z"/><path fill="#fff" d="M260.254 32.102c0 1.958-.712 3.638-2.134 5.04-1.443 1.382-3.175 2.072-5.196 2.072h-16.266v.031c-.825 0-1.536.3-2.134.897-.577.598-.865 1.32-.865 2.165s.289 1.566.865 2.164c.598.598 1.31.898 2.134.898h13.7c1.876 0 3.463.648 4.762 1.948 1.32 1.32 1.98 2.896 1.98 4.73a6.432 6.432 0 0 1-1.485 4.176 6.779 6.779 0 0 1-3.742 2.289h-15.215c-.825 0-1.526.298-2.102.896-.599.598-.898 1.31-.898 2.134 0 .824.3 1.536.898 2.134a2.812 2.812 0 0 0 2.102.896h17.008c1.856.165 3.412.918 4.67 2.258 1.278 1.34 1.917 2.928 1.917 4.763 0 1.958-.711 3.638-2.133 5.04-1.443 1.382-3.176 2.073-5.196 2.073h-26.811c-2.515 0-4.454-.744-5.814-2.228-1.588-1.278-2.381-3.154-2.381-5.628V32.69c0-2.578 1.041-4.588 3.123-6.03 1.278-1.094 2.969-1.64 5.072-1.64h26.811c2.02 0 3.753.69 5.196 2.072 1.422 1.381 2.134 3.05 2.134 5.01"/><path fill="#FFF" d="M214.392 10.609v39.985c0 1.835-.443 3.422-1.33 4.763-1.443 2.122-3.876 3.216-7.298 3.278-3.298.061-6.081-.908-8.35-2.907-.7-.618-1.319-1.31-1.855-2.072l-12.4-20.348v18.678c0 1.98-.701 3.567-2.103 4.763-1.588 1.36-3.908 2.04-6.958 2.04-3.176 0-5.402-1.134-6.68-3.401a7.746 7.746 0 0 1-.835-2.35l-.124-1.052c.103-21.296.196-33.883.279-37.759.164-6.329 3.277-9.566 9.34-9.71 2.596-.041 4.648.474 6.153 1.546.763.536 1.257 1.083 1.484 1.64l14.411 23.688V10.485l.248-.928a7.541 7.541 0 0 1 1.113-2.04c1.526-2 3.855-3 6.989-3 3.113 0 5.37 1.02 6.773 3.061.7 1.01 1.082 2.02 1.143 3.031"/></svg>