<svg xmlns="http://www.w3.org/2000/svg" xml:space="preserve" width="1000px" height="150px" x="0px" y="0px" viewBox="0 0 1000 150"><g fill="#FF5D24"><path d="M338.879.162h43.941v149.799h-43.941zM797.262.039v74.899c0 17.099-13.86 30.959-30.959 30.959-17.098 0-30.958-13.86-30.958-30.959V.039h-43.941v105.872c0 24.26 19.667 43.927 43.927 43.927h61.945c24.26 0 43.928-19.667 43.928-43.927V.039h-43.942zM391.808.162v149.799h43.941V106.02h52.929c29.232 0 52.929-23.697 52.929-52.929 0-29.232-23.697-52.929-52.929-52.929h-96.87zm96.87 61.917h-52.929V44.104h52.929a8.988 8.988 0 1 1 0 17.975M285.949.162v102.684L238.067.162h-65.912v103.889l21.408 45.91h22.534V47.277l47.882 102.684h65.912V.162zM113.795.162H69.852L0 149.961h89.997l20.49-43.941H64.43l27.394-58.744 47.882 102.685h43.941z"/><path d="M898.636 43.98h80.874L1000 .039H898.636c-26.751 0-48.436 21.685-48.436 48.436 0 26.75 21.685 48.435 48.436 48.435h52.929a4.495 4.495 0 0 1 0 8.988H850.19v.015c0 18.276-9.315 34.416-23.445 43.926h124.819c26.75 0 48.436-21.685 48.436-48.435s-21.686-48.436-48.436-48.436h-52.929a4.494 4.494 0 1 1 .001-8.988M682.417 106.02h-96.868V.162h-43.941V20.99c5.701 9.367 8.988 20.357 8.988 32.101s-3.287 22.733-8.988 32.1v64.771h164.446c-14.21-9.476-23.6-25.63-23.637-43.942"/></g></svg>